<svg xmlns="http://www.w3.org/2000/svg" xmlns:xlink="http://www.w3.org/1999/xlink" zoomAndPan="magnify" preserveAspectRatio="xMidYMid meet" version="1.0" viewBox="86.2 517.95 1178.72 464.12"><defs><g/><clipPath id="6e2005ebc1"><path d="M 334 517.863281 L 861.699219 517.863281 L 861.699219 851 L 334 851 Z M 334 517.863281 " clip-rule="nonzero"/></clipPath><clipPath id="5a979459f2"><path d="M 409 864 L 527 864 L 527 982.113281 L 409 982.113281 Z M 409 864 " clip-rule="nonzero"/></clipPath><clipPath id="aad0696cd5"><path d="M 575 864 L 693 864 L 693 982.113281 L 575 982.113281 Z M 575 864 " clip-rule="nonzero"/></clipPath><clipPath id="965dcab7fb"><path d="M 86.199219 719 L 391 719 L 391 755 L 86.199219 755 Z M 86.199219 719 " clip-rule="nonzero"/></clipPath></defs><g clip-path="url(#6e2005ebc1)"><path fill="#ff9e01" d="M 861.699219 608.625 L 808.082031 831.265625 C 808.078125 831.792969 808.050781 832.320312 807.996094 832.847656 C 807.945312 833.371094 807.867188 833.894531 807.761719 834.410156 C 807.65625 834.929688 807.527344 835.441406 807.375 835.945312 C 807.21875 836.453125 807.039062 836.949219 806.835938 837.433594 C 806.632812 837.921875 806.40625 838.398438 806.15625 838.867188 C 805.910156 839.332031 805.636719 839.78125 805.34375 840.222656 C 805.046875 840.660156 804.734375 841.085938 804.398438 841.492188 C 804.0625 841.902344 803.707031 842.292969 803.335938 842.664062 C 802.960938 843.039062 802.570312 843.394531 802.164062 843.730469 C 801.753906 844.0625 801.328125 844.378906 800.890625 844.671875 C 800.453125 844.964844 800 845.238281 799.535156 845.488281 C 799.066406 845.738281 798.589844 845.964844 798.101562 846.167969 C 797.617188 846.371094 797.117188 846.546875 796.613281 846.703125 C 796.109375 846.855469 795.597656 846.984375 795.078125 847.089844 C 794.5625 847.195312 794.039062 847.273438 793.511719 847.328125 C 792.988281 847.378906 792.460938 847.40625 791.933594 847.410156 L 430.640625 850.027344 C 430.113281 850.027344 429.585938 850 429.058594 849.945312 C 428.535156 849.890625 428.011719 849.8125 427.492188 849.707031 C 426.976562 849.605469 426.464844 849.476562 425.957031 849.320312 C 425.453125 849.164062 424.957031 848.988281 424.46875 848.785156 C 423.980469 848.582031 423.503906 848.355469 423.039062 848.105469 C 422.574219 847.855469 422.121094 847.582031 421.679688 847.289062 C 421.242188 846.996094 420.820312 846.683594 420.410156 846.347656 C 420.003906 846.011719 419.609375 845.65625 419.238281 845.285156 C 418.863281 844.910156 418.507812 844.519531 418.175781 844.109375 C 417.839844 843.703125 417.523438 843.277344 417.230469 842.839844 C 416.9375 842.402344 416.664062 841.949219 416.414062 841.484375 C 416.164062 841.015625 415.9375 840.539062 415.734375 840.054688 C 415.53125 839.566406 415.355469 839.070312 415.199219 838.5625 C 415.042969 838.058594 414.914062 837.546875 414.8125 837.027344 C 414.707031 836.511719 414.628906 835.988281 414.574219 835.464844 C 414.519531 834.9375 414.492188 834.410156 414.492188 833.882812 L 414.492188 608.597656 C 414.488281 608.152344 414.503906 607.714844 414.546875 607.273438 L 409.664062 563.683594 L 356.257812 563.683594 C 355.527344 563.65625 354.800781 563.589844 354.074219 563.492188 C 353.351562 563.394531 352.632812 563.261719 351.921875 563.09375 C 351.210938 562.925781 350.511719 562.726562 349.816406 562.488281 C 349.125 562.253906 348.445312 561.988281 347.78125 561.6875 C 347.113281 561.390625 346.464844 561.058594 345.828125 560.695312 C 345.195312 560.335938 344.578125 559.941406 343.980469 559.523438 C 343.382812 559.101562 342.808594 558.652344 342.253906 558.175781 C 341.699219 557.703125 341.167969 557.199219 340.664062 556.671875 C 340.15625 556.148438 339.675781 555.597656 339.222656 555.023438 C 338.769531 554.453125 338.34375 553.859375 337.949219 553.246094 C 337.550781 552.632812 337.183594 552 336.847656 551.351562 C 336.511719 550.703125 336.207031 550.042969 335.933594 549.363281 C 335.664062 548.6875 335.421875 547.996094 335.214844 547.296875 C 335.007812 546.597656 334.835938 545.886719 334.695312 545.171875 C 334.558594 544.453125 334.453125 543.730469 334.382812 543.003906 C 334.3125 542.277344 334.277344 541.546875 334.277344 540.816406 C 334.277344 540.085938 334.3125 539.359375 334.382812 538.632812 C 334.453125 537.90625 334.558594 537.183594 334.695312 536.464844 C 334.835938 535.75 335.007812 535.039062 335.214844 534.339844 C 335.421875 533.640625 335.664062 532.949219 335.933594 532.273438 C 336.207031 531.59375 336.511719 530.929688 336.847656 530.28125 C 337.183594 529.632812 337.550781 529.003906 337.949219 528.390625 C 338.34375 527.777344 338.769531 527.183594 339.222656 526.613281 C 339.675781 526.039062 340.15625 525.488281 340.664062 524.960938 C 341.167969 524.4375 341.699219 523.933594 342.253906 523.457031 C 342.808594 522.984375 343.382812 522.535156 343.980469 522.113281 C 344.578125 521.691406 345.195312 521.300781 345.828125 520.941406 C 346.464844 520.578125 347.113281 520.246094 347.78125 519.949219 C 348.445312 519.648438 349.125 519.378906 349.816406 519.144531 C 350.511719 518.910156 351.210938 518.710938 351.921875 518.542969 C 352.632812 518.375 353.351562 518.242188 354.074219 518.144531 C 354.800781 518.046875 355.527344 517.980469 356.257812 517.953125 L 450.53125 517.953125 C 450.539062 518.035156 450.539062 518.117188 450.53125 518.199219 L 455.628906 563.710938 L 458.859375 592.46875 L 845.550781 592.46875 C 846.078125 592.472656 846.605469 592.5 847.132812 592.554688 C 847.660156 592.605469 848.179688 592.683594 848.699219 592.789062 C 849.21875 592.894531 849.730469 593.023438 850.234375 593.179688 C 850.738281 593.332031 851.238281 593.511719 851.722656 593.714844 C 852.210938 593.917969 852.6875 594.144531 853.15625 594.394531 C 853.621094 594.644531 854.074219 594.914062 854.511719 595.210938 C 854.953125 595.503906 855.375 595.816406 855.785156 596.152344 C 856.191406 596.488281 856.582031 596.84375 856.957031 597.21875 C 857.332031 597.589844 857.683594 597.984375 858.019531 598.390625 C 858.355469 598.800781 858.671875 599.222656 858.964844 599.664062 C 859.257812 600.101562 859.53125 600.554688 859.78125 601.019531 C 860.03125 601.484375 860.253906 601.964844 860.457031 602.449219 C 860.660156 602.9375 860.839844 603.433594 860.996094 603.941406 C 861.148438 604.445312 861.277344 604.957031 861.382812 605.476562 C 861.484375 605.996094 861.566406 606.515625 861.617188 607.042969 C 861.671875 607.566406 861.699219 608.09375 861.699219 608.625 Z M 861.699219 608.625 " fill-opacity="1" fill-rule="nonzero"/></g><g clip-path="url(#5a979459f2)"><path fill="#ff7312" d="M 526.910156 923.242188 C 526.910156 925.167969 526.816406 927.089844 526.628906 929.007812 C 526.441406 930.925781 526.15625 932.828125 525.78125 934.71875 C 525.40625 936.609375 524.9375 938.476562 524.378906 940.320312 C 523.816406 942.164062 523.167969 943.976562 522.433594 945.753906 C 521.695312 947.535156 520.871094 949.273438 519.964844 950.972656 C 519.054688 952.671875 518.066406 954.324219 516.996094 955.925781 C 515.921875 957.527344 514.777344 959.074219 513.554688 960.5625 C 512.332031 962.050781 511.039062 963.476562 509.675781 964.839844 C 508.3125 966.203125 506.886719 967.496094 505.398438 968.71875 C 503.90625 969.941406 502.359375 971.085938 500.757812 972.15625 C 499.15625 973.226562 497.503906 974.21875 495.804688 975.125 C 494.105469 976.035156 492.363281 976.855469 490.585938 977.59375 C 488.804688 978.332031 486.992188 978.980469 485.148438 979.539062 C 483.304688 980.097656 481.4375 980.566406 479.546875 980.941406 C 477.65625 981.316406 475.75 981.597656 473.832031 981.789062 C 471.914062 981.976562 469.992188 982.070312 468.066406 982.070312 C 466.136719 982.070312 464.214844 981.976562 462.296875 981.789062 C 460.378906 981.597656 458.476562 981.316406 456.585938 980.941406 C 454.695312 980.566406 452.828125 980.097656 450.984375 979.539062 C 449.136719 978.980469 447.324219 978.332031 445.546875 977.59375 C 443.765625 976.855469 442.023438 976.035156 440.324219 975.125 C 438.625 974.21875 436.972656 973.226562 435.371094 972.15625 C 433.769531 971.085938 432.222656 969.941406 430.734375 968.71875 C 429.242188 967.496094 427.816406 966.203125 426.453125 964.839844 C 425.089844 963.476562 423.796875 962.050781 422.574219 960.5625 C 421.351562 959.074219 420.207031 957.527344 419.136719 955.925781 C 418.066406 954.324219 417.074219 952.671875 416.167969 950.972656 C 415.257812 949.273438 414.433594 947.535156 413.699219 945.753906 C 412.960938 943.976562 412.3125 942.164062 411.753906 940.320312 C 411.191406 938.476562 410.726562 936.609375 410.347656 934.71875 C 409.972656 932.828125 409.691406 930.925781 409.5 929.007812 C 409.3125 927.089844 409.21875 925.167969 409.21875 923.242188 C 409.21875 921.316406 409.3125 919.390625 409.5 917.476562 C 409.691406 915.558594 409.972656 913.652344 410.347656 911.765625 C 410.726562 909.875 411.191406 908.007812 411.753906 906.164062 C 412.3125 904.320312 412.960938 902.507812 413.699219 900.726562 C 414.433594 898.949219 415.257812 897.207031 416.167969 895.507812 C 417.074219 893.808594 418.066406 892.160156 419.136719 890.558594 C 420.207031 888.953125 421.351562 887.410156 422.574219 885.921875 C 423.796875 884.429688 425.089844 883.003906 426.453125 881.640625 C 427.816406 880.28125 429.242188 878.988281 430.734375 877.765625 C 432.222656 876.542969 433.769531 875.394531 435.371094 874.324219 C 436.972656 873.253906 438.625 872.265625 440.324219 871.359375 C 442.023438 870.449219 443.765625 869.625 445.546875 868.890625 C 447.324219 868.152344 449.136719 867.503906 450.984375 866.945312 C 452.828125 866.386719 454.695312 865.917969 456.585938 865.542969 C 458.476562 865.164062 460.378906 864.882812 462.296875 864.695312 C 464.214844 864.503906 466.136719 864.410156 468.066406 864.410156 C 469.992188 864.410156 471.914062 864.503906 473.832031 864.695312 C 475.75 864.882812 477.65625 865.164062 479.546875 865.542969 C 481.4375 865.917969 483.304688 866.386719 485.148438 866.945312 C 486.992188 867.503906 488.804688 868.152344 490.585938 868.890625 C 492.363281 869.625 494.105469 870.449219 495.804688 871.359375 C 497.503906 872.265625 499.15625 873.253906 500.757812 874.324219 C 502.359375 875.394531 503.90625 876.542969 505.398438 877.765625 C 506.886719 878.988281 508.3125 880.28125 509.675781 881.640625 C 511.039062 883.003906 512.332031 884.429688 513.554688 885.921875 C 514.777344 887.410156 515.921875 888.953125 516.996094 890.558594 C 518.066406 892.160156 519.054688 893.808594 519.964844 895.507812 C 520.871094 897.207031 521.695312 898.949219 522.433594 900.726562 C 523.167969 902.507812 523.816406 904.320312 524.378906 906.164062 C 524.9375 908.007812 525.40625 909.875 525.78125 911.765625 C 526.15625 913.652344 526.441406 915.558594 526.628906 917.476562 C 526.816406 919.390625 526.910156 921.316406 526.910156 923.242188 Z M 526.910156 923.242188 " fill-opacity="1" fill-rule="nonzero"/></g><g clip-path="url(#aad0696cd5)"><path fill="#ff7312" d="M 692.996094 923.242188 C 692.996094 925.167969 692.902344 927.089844 692.714844 929.007812 C 692.523438 930.925781 692.242188 932.828125 691.867188 934.71875 C 691.488281 936.609375 691.023438 938.476562 690.460938 940.320312 C 689.902344 942.164062 689.253906 943.976562 688.515625 945.753906 C 687.78125 947.535156 686.957031 949.273438 686.046875 950.972656 C 685.140625 952.671875 684.148438 954.324219 683.078125 955.925781 C 682.007812 957.527344 680.863281 959.074219 679.640625 960.5625 C 678.417969 962.050781 677.125 963.476562 675.761719 964.839844 C 674.398438 966.203125 672.972656 967.496094 671.480469 968.71875 C 669.992188 969.941406 668.445312 971.085938 666.84375 972.15625 C 665.242188 973.226562 663.589844 974.21875 661.890625 975.125 C 660.191406 976.035156 658.449219 976.855469 656.667969 977.59375 C 654.890625 978.332031 653.078125 978.980469 651.230469 979.539062 C 649.386719 980.097656 647.519531 980.566406 645.628906 980.941406 C 643.738281 981.316406 641.835938 981.597656 639.917969 981.789062 C 638 981.976562 636.078125 982.070312 634.148438 982.070312 C 632.222656 982.070312 630.300781 981.976562 628.382812 981.789062 C 626.464844 981.597656 624.558594 981.316406 622.667969 980.941406 C 620.777344 980.566406 618.910156 980.097656 617.066406 979.539062 C 615.222656 978.980469 613.410156 978.332031 611.628906 977.59375 C 609.847656 976.855469 608.109375 976.035156 606.410156 975.125 C 604.710938 974.21875 603.058594 973.226562 601.457031 972.15625 C 599.855469 971.085938 598.308594 969.941406 596.816406 968.71875 C 595.328125 967.496094 593.902344 966.203125 592.539062 964.839844 C 591.175781 963.476562 589.882812 962.050781 588.660156 960.5625 C 587.4375 959.074219 586.292969 957.527344 585.21875 955.925781 C 584.148438 954.324219 583.160156 952.671875 582.25 950.972656 C 581.34375 949.273438 580.519531 947.535156 579.78125 945.753906 C 579.042969 943.976562 578.394531 942.164062 577.835938 940.320312 C 577.277344 938.476562 576.808594 936.609375 576.433594 934.71875 C 576.058594 932.828125 575.773438 930.925781 575.585938 929.007812 C 575.398438 927.089844 575.304688 925.167969 575.304688 923.242188 C 575.304688 921.316406 575.398438 919.390625 575.585938 917.476562 C 575.773438 915.558594 576.058594 913.652344 576.433594 911.765625 C 576.808594 909.875 577.277344 908.007812 577.835938 906.164062 C 578.394531 904.320312 579.042969 902.507812 579.78125 900.726562 C 580.519531 898.949219 581.34375 897.207031 582.25 895.507812 C 583.160156 893.808594 584.148438 892.160156 585.21875 890.558594 C 586.292969 888.953125 587.4375 887.410156 588.660156 885.921875 C 589.882812 884.429688 591.175781 883.003906 592.539062 881.640625 C 593.902344 880.28125 595.328125 878.988281 596.816406 877.765625 C 598.308594 876.542969 599.855469 875.394531 601.457031 874.324219 C 603.058594 873.253906 604.710938 872.265625 606.410156 871.359375 C 608.109375 870.449219 609.847656 869.625 611.628906 868.890625 C 613.410156 868.152344 615.222656 867.503906 617.066406 866.945312 C 618.910156 866.386719 620.777344 865.917969 622.667969 865.542969 C 624.558594 865.164062 626.464844 864.882812 628.382812 864.695312 C 630.300781 864.503906 632.222656 864.410156 634.148438 864.410156 C 636.078125 864.410156 638 864.503906 639.917969 864.695312 C 641.835938 864.882812 643.738281 865.164062 645.628906 865.542969 C 647.519531 865.917969 649.386719 866.386719 651.230469 866.945312 C 653.078125 867.503906 654.890625 868.152344 656.667969 868.890625 C 658.449219 869.625 660.191406 870.449219 661.890625 871.359375 C 663.589844 872.265625 665.242188 873.253906 666.84375 874.324219 C 668.445312 875.394531 669.992188 876.542969 671.480469 877.765625 C 672.972656 878.988281 674.398438 880.28125 675.761719 881.640625 C 677.125 883.003906 678.417969 884.429688 679.640625 885.921875 C 680.863281 887.410156 682.007812 888.953125 683.078125 890.558594 C 684.148438 892.160156 685.140625 893.808594 686.046875 895.507812 C 686.957031 897.207031 687.78125 898.949219 688.515625 900.726562 C 689.253906 902.507812 689.902344 904.320312 690.460938 906.164062 C 691.023438 908.007812 691.488281 909.875 691.867188 911.765625 C 692.242188 913.652344 692.523438 915.558594 692.714844 917.476562 C 692.902344 919.390625 692.996094 921.316406 692.996094 923.242188 Z M 692.996094 923.242188 " fill-opacity="1" fill-rule="nonzero"/></g><path fill="#ff9e01" d="M 240.515625 612.082031 L 375.214844 612.082031 C 376.246094 612.082031 377.265625 612.179688 378.277344 612.382812 C 379.285156 612.582031 380.269531 612.878906 381.21875 613.273438 C 382.171875 613.667969 383.078125 614.152344 383.933594 614.722656 C 384.789062 615.296875 385.582031 615.945312 386.3125 616.675781 C 387.039062 617.402344 387.691406 618.195312 388.261719 619.050781 C 388.835938 619.910156 389.320312 620.8125 389.710938 621.765625 C 390.105469 622.714844 390.40625 623.695312 390.605469 624.707031 C 390.808594 625.71875 390.90625 626.738281 390.90625 627.769531 L 390.90625 631.691406 C 390.90625 632.71875 390.808594 633.742188 390.605469 634.75 C 390.40625 635.761719 390.105469 636.742188 389.710938 637.695312 C 389.320312 638.644531 388.835938 639.550781 388.261719 640.40625 C 387.691406 641.261719 387.039062 642.054688 386.3125 642.785156 C 385.582031 643.511719 384.789062 644.160156 383.933594 644.734375 C 383.078125 645.304688 382.171875 645.789062 381.21875 646.183594 C 380.269531 646.578125 379.285156 646.875 378.277344 647.078125 C 377.265625 647.277344 376.246094 647.378906 375.214844 647.378906 L 240.515625 647.378906 C 239.484375 647.378906 238.464844 647.277344 237.453125 647.078125 C 236.441406 646.875 235.460938 646.578125 234.507812 646.183594 C 233.558594 645.789062 232.652344 645.304688 231.796875 644.734375 C 230.941406 644.160156 230.148438 643.511719 229.417969 642.785156 C 228.691406 642.054688 228.039062 641.261719 227.46875 640.40625 C 226.894531 639.550781 226.410156 638.644531 226.015625 637.695312 C 225.621094 636.742188 225.324219 635.761719 225.125 634.75 C 224.921875 633.742188 224.824219 632.71875 224.824219 631.691406 L 224.824219 627.769531 C 224.824219 626.738281 224.921875 625.71875 225.125 624.707031 C 225.324219 623.699219 225.621094 622.714844 226.015625 621.765625 C 226.410156 620.8125 226.894531 619.910156 227.46875 619.050781 C 228.039062 618.195312 228.691406 617.402344 229.417969 616.675781 C 230.148438 615.945312 230.941406 615.296875 231.796875 614.722656 C 232.652344 614.152344 233.558594 613.667969 234.507812 613.273438 C 235.460938 612.878906 236.441406 612.582031 237.453125 612.382812 C 238.464844 612.179688 239.484375 612.082031 240.515625 612.082031 Z M 240.515625 612.082031 " fill-opacity="1" fill-rule="nonzero"/><path fill="#ff9e01" d="M 240.515625 831.722656 L 375.214844 831.722656 C 376.246094 831.722656 377.265625 831.824219 378.277344 832.023438 C 379.285156 832.222656 380.269531 832.523438 381.21875 832.914062 C 382.171875 833.308594 383.078125 833.792969 383.933594 834.367188 C 384.789062 834.9375 385.582031 835.589844 386.3125 836.316406 C 387.039062 837.046875 387.691406 837.835938 388.261719 838.695312 C 388.835938 839.550781 389.320312 840.453125 389.710938 841.40625 C 390.105469 842.359375 390.40625 843.339844 390.605469 844.347656 C 390.808594 845.359375 390.90625 846.378906 390.90625 847.410156 L 390.90625 851.332031 C 390.90625 852.363281 390.808594 853.382812 390.605469 854.390625 C 390.40625 855.402344 390.105469 856.382812 389.710938 857.335938 C 389.320312 858.285156 388.835938 859.191406 388.261719 860.046875 C 387.691406 860.902344 387.039062 861.695312 386.3125 862.425781 C 385.582031 863.152344 384.789062 863.804688 383.933594 864.375 C 383.078125 864.949219 382.171875 865.429688 381.21875 865.824219 C 380.269531 866.21875 379.285156 866.515625 378.277344 866.71875 C 377.265625 866.917969 376.246094 867.019531 375.214844 867.019531 L 240.515625 867.019531 C 239.484375 867.019531 238.464844 866.917969 237.453125 866.71875 C 236.441406 866.515625 235.460938 866.21875 234.507812 865.824219 C 233.558594 865.429688 232.652344 864.949219 231.796875 864.375 C 230.941406 863.804688 230.148438 863.152344 229.417969 862.425781 C 228.691406 861.695312 228.039062 860.902344 227.46875 860.046875 C 226.894531 859.191406 226.410156 858.285156 226.015625 857.335938 C 225.621094 856.382812 225.324219 855.402344 225.125 854.390625 C 224.921875 853.382812 224.824219 852.363281 224.824219 851.332031 L 224.824219 847.410156 C 224.824219 846.378906 224.921875 845.359375 225.125 844.347656 C 225.324219 843.339844 225.621094 842.359375 226.015625 841.40625 C 226.410156 840.453125 226.894531 839.550781 227.46875 838.695312 C 228.039062 837.835938 228.691406 837.046875 229.417969 836.316406 C 230.148438 835.589844 230.941406 834.9375 231.796875 834.367188 C 232.652344 833.792969 233.558594 833.308594 234.507812 832.914062 C 235.460938 832.523438 236.441406 832.222656 237.453125 832.023438 C 238.464844 831.824219 239.484375 831.722656 240.515625 831.722656 Z M 240.515625 831.722656 " fill-opacity="1" fill-rule="nonzero"/><g clip-path="url(#965dcab7fb)"><path fill="#ff9e01" d="M 103.855469 719.289062 L 373.253906 719.289062 C 373.832031 719.289062 374.410156 719.316406 374.984375 719.371094 C 375.558594 719.429688 376.128906 719.515625 376.699219 719.625 C 377.265625 719.738281 377.824219 719.878906 378.378906 720.046875 C 378.929688 720.214844 379.476562 720.410156 380.007812 720.632812 C 380.542969 720.851562 381.066406 721.097656 381.574219 721.371094 C 382.085938 721.644531 382.582031 721.941406 383.0625 722.261719 C 383.542969 722.582031 384.007812 722.925781 384.453125 723.292969 C 384.898438 723.660156 385.328125 724.046875 385.738281 724.457031 C 386.144531 724.867188 386.535156 725.292969 386.898438 725.742188 C 387.265625 726.1875 387.609375 726.652344 387.933594 727.132812 C 388.253906 727.613281 388.550781 728.105469 388.824219 728.617188 C 389.09375 729.125 389.34375 729.648438 389.5625 730.183594 C 389.785156 730.71875 389.980469 731.261719 390.148438 731.8125 C 390.316406 732.367188 390.457031 732.925781 390.566406 733.492188 C 390.679688 734.058594 390.765625 734.632812 390.824219 735.207031 C 390.878906 735.78125 390.90625 736.359375 390.90625 736.9375 C 390.90625 737.515625 390.878906 738.089844 390.824219 738.667969 C 390.765625 739.242188 390.679688 739.8125 390.566406 740.378906 C 390.457031 740.945312 390.316406 741.507812 390.148438 742.058594 C 389.980469 742.613281 389.785156 743.15625 389.5625 743.691406 C 389.34375 744.226562 389.09375 744.746094 388.824219 745.257812 C 388.550781 745.765625 388.253906 746.261719 387.933594 746.742188 C 387.609375 747.222656 387.265625 747.6875 386.898438 748.132812 C 386.535156 748.582031 386.144531 749.007812 385.738281 749.417969 C 385.328125 749.824219 384.898438 750.214844 384.453125 750.578125 C 384.007812 750.945312 383.542969 751.289062 383.0625 751.613281 C 382.582031 751.933594 382.085938 752.230469 381.574219 752.5 C 381.066406 752.773438 380.542969 753.019531 380.007812 753.242188 C 379.476562 753.464844 378.929688 753.65625 378.378906 753.824219 C 377.824219 753.992188 377.265625 754.132812 376.699219 754.246094 C 376.128906 754.359375 375.558594 754.445312 374.984375 754.5 C 374.410156 754.558594 373.832031 754.585938 373.253906 754.585938 L 103.855469 754.585938 C 103.277344 754.585938 102.699219 754.558594 102.125 754.5 C 101.546875 754.445312 100.976562 754.359375 100.410156 754.246094 C 99.84375 754.132812 99.28125 753.992188 98.730469 753.824219 C 98.175781 753.65625 97.632812 753.464844 97.097656 753.242188 C 96.5625 753.019531 96.042969 752.773438 95.53125 752.5 C 95.023438 752.230469 94.527344 751.933594 94.046875 751.613281 C 93.566406 751.289062 93.101562 750.945312 92.652344 750.578125 C 92.207031 750.214844 91.777344 749.824219 91.371094 749.417969 C 90.960938 749.007812 90.574219 748.582031 90.207031 748.132812 C 89.839844 747.6875 89.496094 747.222656 89.175781 746.742188 C 88.855469 746.261719 88.558594 745.765625 88.285156 745.257812 C 88.011719 744.746094 87.765625 744.226562 87.542969 743.691406 C 87.320312 743.15625 87.128906 742.613281 86.960938 742.058594 C 86.792969 741.507812 86.652344 740.945312 86.539062 740.378906 C 86.425781 739.8125 86.339844 739.242188 86.285156 738.667969 C 86.226562 738.089844 86.199219 737.515625 86.199219 736.9375 C 86.199219 736.359375 86.226562 735.78125 86.285156 735.207031 C 86.339844 734.632812 86.425781 734.058594 86.539062 733.492188 C 86.652344 732.925781 86.792969 732.367188 86.960938 731.8125 C 87.128906 731.261719 87.320312 730.71875 87.542969 730.183594 C 87.765625 729.648438 88.011719 729.125 88.285156 728.617188 C 88.558594 728.105469 88.855469 727.613281 89.175781 727.132812 C 89.496094 726.652344 89.839844 726.1875 90.207031 725.742188 C 90.574219 725.292969 90.960938 724.867188 91.371094 724.457031 C 91.777344 724.046875 92.207031 723.660156 92.652344 723.292969 C 93.101562 722.925781 93.566406 722.582031 94.046875 722.261719 C 94.527344 721.941406 95.023438 721.644531 95.53125 721.371094 C 96.042969 721.097656 96.5625 720.851562 97.097656 720.632812 C 97.632812 720.410156 98.175781 720.214844 98.730469 720.046875 C 99.28125 719.878906 99.84375 719.738281 100.410156 719.625 C 100.976562 719.515625 101.546875 719.429688 102.125 719.371094 C 102.699219 719.316406 103.277344 719.289062 103.855469 719.289062 Z M 103.855469 719.289062 " fill-opacity="1" fill-rule="nonzero"/></g><g fill="#fdf8f0" fill-opacity="1"><g transform="translate(463.668528, 837.058732)"><g><path d="M 195.203125 -181.6875 C 179.890625 -174.488281 166.601562 -164.523438 155.34375 -151.796875 C 144.09375 -139.078125 134.863281 -124.613281 127.65625 -108.40625 C 120.445312 -92.195312 115.097656 -74.804688 111.609375 -56.234375 C 108.117188 -37.660156 106.375 -18.914062 106.375 0 L 33.4375 0 C 33.4375 -5.625 34.109375 -12.65625 35.453125 -21.09375 C 36.804688 -29.539062 38.945312 -38.832031 41.875 -48.96875 C 44.800781 -59.101562 48.628906 -69.6875 53.359375 -80.71875 C 58.085938 -91.75 63.828125 -102.554688 70.578125 -113.140625 C 77.335938 -123.722656 85.21875 -133.738281 94.21875 -143.1875 C 103.226562 -152.644531 113.472656 -160.863281 124.953125 -167.84375 L 22.296875 -167.84375 L 32.421875 -214.453125 L 202.625 -214.453125 Z M 195.203125 -181.6875 "/></g></g></g><g fill="#ff3131" fill-opacity="1"><g transform="translate(622.381456, 836.249908)"><g><path d="M 99.359375 -113.734375 C 99.859375 -116.253906 100.109375 -119.695312 100.109375 -124.0625 C 100.109375 -126.582031 99.941406 -129.0625 99.609375 -131.5 C 99.273438 -133.945312 98.6875 -136.132812 97.84375 -138.0625 C 97 -140 95.734375 -141.515625 94.046875 -142.609375 C 92.367188 -143.703125 90.1875 -144.25 87.5 -144.25 C 84.476562 -144.25 81.707031 -143.570312 79.1875 -142.21875 C 76.664062 -140.875 74.4375 -139.148438 72.5 -137.046875 C 70.5625 -134.953125 69.046875 -132.515625 67.953125 -129.734375 C 66.867188 -126.960938 66.328125 -124.066406 66.328125 -121.046875 C 66.328125 -116.671875 67.457031 -113.304688 69.71875 -110.953125 C 71.988281 -108.597656 74.972656 -106.664062 78.671875 -105.15625 C 82.367188 -103.644531 86.570312 -102.382812 91.28125 -101.375 C 95.988281 -100.363281 100.863281 -99.1875 105.90625 -97.84375 C 110.113281 -96.664062 114.316406 -95.148438 118.515625 -93.296875 C 122.722656 -91.453125 126.460938 -88.972656 129.734375 -85.859375 C 133.015625 -82.753906 135.664062 -78.722656 137.6875 -73.765625 C 139.707031 -68.804688 140.71875 -62.625 140.71875 -55.21875 C 140.71875 -44.632812 138.613281 -35.726562 134.40625 -28.5 C 130.207031 -21.269531 124.40625 -15.382812 117 -10.84375 C 109.601562 -6.300781 100.820312 -3.019531 90.65625 -1 C 80.488281 1.007812 69.4375 2.015625 57.5 2.015625 C 45.394531 2.015625 35.515625 1.21875 27.859375 -0.375 C 20.210938 -1.976562 14.203125 -3.703125 9.828125 -5.546875 C 4.617188 -7.734375 0.753906 -10.253906 -1.765625 -13.109375 L 6.8125 -47.65625 L 51.1875 -47.65625 C 51.019531 -46.144531 50.851562 -44.085938 50.6875 -41.484375 C 50.519531 -38.878906 50.4375 -36.816406 50.4375 -35.296875 C 50.4375 -33.285156 50.6875 -31.1875 51.1875 -29 C 51.695312 -26.8125 52.492188 -24.789062 53.578125 -22.9375 C 54.671875 -21.09375 56.226562 -19.582031 58.25 -18.40625 C 60.269531 -17.226562 62.789062 -16.640625 65.8125 -16.640625 C 69.175781 -16.640625 72.160156 -17.394531 74.765625 -18.90625 C 77.367188 -20.425781 79.550781 -22.316406 81.3125 -24.578125 C 83.082031 -26.847656 84.429688 -29.367188 85.359375 -32.140625 C 86.285156 -34.921875 86.75 -37.65625 86.75 -40.34375 C 86.75 -44.039062 85.863281 -47.148438 84.09375 -49.671875 C 82.332031 -52.191406 79.9375 -54.332031 76.90625 -56.09375 C 73.882812 -57.863281 70.394531 -59.378906 66.4375 -60.640625 C 62.488281 -61.898438 58.414062 -63.207031 54.21875 -64.5625 C 50.1875 -65.738281 45.941406 -67.164062 41.484375 -68.84375 C 37.023438 -70.519531 32.945312 -72.867188 29.25 -75.890625 C 25.550781 -78.921875 22.484375 -82.75 20.046875 -87.375 C 17.609375 -92 16.390625 -97.925781 16.390625 -105.15625 C 16.390625 -115.914062 19.117188 -124.953125 24.578125 -132.265625 C 30.046875 -139.578125 36.941406 -145.5 45.265625 -150.03125 C 53.585938 -154.570312 62.707031 -157.8125 72.625 -159.75 C 82.539062 -161.6875 91.957031 -162.65625 100.875 -162.65625 C 112.632812 -162.65625 122.757812 -161.265625 131.25 -158.484375 C 139.738281 -155.710938 146.171875 -152.476562 150.546875 -148.78125 L 141.21875 -113.734375 Z M 99.359375 -113.734375 "/></g></g></g><g fill="#ff7312" fill-opacity="1"><g transform="translate(767.63535, 836.249908)"><g><path d="M 11.59375 -108.4375 C 17.820312 -109.78125 23.285156 -111.289062 27.984375 -112.96875 C 32.691406 -114.65625 37.019531 -116.757812 40.96875 -119.28125 C 44.925781 -121.800781 48.710938 -124.910156 52.328125 -128.609375 C 55.941406 -132.304688 59.847656 -136.84375 64.046875 -142.21875 L 90.03125 -142.21875 L 82.71875 -108.4375 L 102.375 -108.4375 L 99.109375 -91.53125 L 79.1875 -91.53125 L 68.84375 -42.359375 C 68 -38.492188 67.320312 -35.046875 66.8125 -32.015625 C 66.3125 -28.992188 66.0625 -26.644531 66.0625 -24.96875 C 66.0625 -21.601562 67.28125 -19.5 69.71875 -18.65625 C 72.15625 -17.820312 76.738281 -17.40625 83.46875 -17.40625 L 79.6875 0 C 78.507812 0.332031 76.703125 0.582031 74.265625 0.75 C 71.828125 0.925781 69.132812 1.140625 66.1875 1.390625 C 63.25 1.640625 60.222656 1.804688 57.109375 1.890625 C 54.003906 1.972656 51.273438 2.015625 48.921875 2.015625 C 44.710938 2.015625 40.59375 1.71875 36.5625 1.125 C 32.53125 0.539062 28.914062 -0.628906 25.71875 -2.390625 C 22.53125 -4.160156 19.96875 -6.722656 18.03125 -10.078125 C 16.09375 -13.441406 15.125 -17.984375 15.125 -23.703125 C 15.125 -25.722656 15.25 -28.242188 15.5 -31.265625 C 15.757812 -34.296875 16.304688 -37.660156 17.140625 -41.359375 L 27.734375 -91.53125 L 8.0625 -91.53125 Z M 11.59375 -108.4375 "/></g></g></g><g fill="#ff7312" fill-opacity="1"><g transform="translate(864.217217, 836.249908)"><g><path d="M 79.4375 -111.203125 C 99.4375 -111.203125 113.976562 -107.671875 123.0625 -100.609375 C 132.644531 -93.210938 137.4375 -80.941406 137.4375 -63.796875 C 137.4375 -53.203125 135.671875 -43.660156 132.140625 -35.171875 C 128.609375 -26.679688 123.648438 -19.664062 117.265625 -14.125 C 104.484375 -3.363281 85.988281 2.015625 61.78125 2.015625 C 41.101562 2.015625 26.3125 -1.929688 17.40625 -9.828125 C 7.820312 -18.066406 3.03125 -30.425781 3.03125 -46.90625 C 3.03125 -57.832031 5.253906 -67.75 9.703125 -76.65625 C 14.160156 -85.570312 20.59375 -92.96875 29 -98.84375 C 41.269531 -107.082031 58.082031 -111.203125 79.4375 -111.203125 Z M 62.28125 -15.125 C 66.488281 -15.125 70.144531 -17.476562 73.25 -22.1875 C 76.363281 -26.894531 78.84375 -32.648438 80.6875 -39.453125 C 82.539062 -46.265625 83.929688 -53.328125 84.859375 -60.640625 C 85.785156 -67.953125 86.25 -74.300781 86.25 -79.6875 C 86.25 -84.394531 85.785156 -87.96875 84.859375 -90.40625 C 83.929688 -92.84375 81.957031 -94.0625 78.9375 -94.0625 C 74.394531 -94.0625 70.484375 -91.625 67.203125 -86.75 C 63.921875 -81.875 61.269531 -76.070312 59.25 -69.34375 C 57.238281 -62.625 55.769531 -55.734375 54.84375 -48.671875 C 53.914062 -41.609375 53.453125 -35.890625 53.453125 -31.515625 C 53.453125 -20.585938 56.394531 -15.125 62.28125 -15.125 Z M 62.28125 -15.125 "/></g></g></g><g fill="#ff7312" fill-opacity="1"><g transform="translate(1009.216167, 836.249908)"><g><path d="M 20.421875 -108.4375 L 61.53125 -108.4375 L 65.3125 -89.515625 L 67.078125 -89.515625 C 70.941406 -95.566406 75.898438 -100.691406 81.953125 -104.890625 C 88.003906 -109.097656 95.988281 -111.203125 105.90625 -111.203125 C 106.582031 -111.203125 107.632812 -111.160156 109.0625 -111.078125 C 110.488281 -110.992188 112.082031 -110.738281 113.84375 -110.3125 C 115.613281 -109.894531 117.460938 -109.304688 119.390625 -108.546875 C 121.328125 -107.796875 123.222656 -106.75 125.078125 -105.40625 L 113.984375 -53.453125 L 86.5 -53.453125 C 86.15625 -63.878906 85.226562 -71.148438 83.71875 -75.265625 C 82.207031 -79.390625 79.769531 -81.453125 76.40625 -81.453125 C 74.726562 -81.453125 72.921875 -81.070312 70.984375 -80.3125 C 69.054688 -79.5625 67.082031 -77.925781 65.0625 -75.40625 L 48.921875 0 L -2.515625 0 Z M 20.421875 -108.4375 "/></g></g></g><g fill="#ff7312" fill-opacity="1"><g transform="translate(1131.015259, 836.249908)"><g><path d="M 54.96875 -50.6875 C 54.300781 -46.988281 53.835938 -43.457031 53.578125 -40.09375 C 53.328125 -36.726562 53.203125 -33.703125 53.203125 -31.015625 C 53.203125 -29.503906 53.285156 -27.820312 53.453125 -25.96875 C 53.628906 -24.125 54.007812 -22.398438 54.59375 -20.796875 C 55.1875 -19.203125 56.023438 -17.859375 57.109375 -16.765625 C 58.203125 -15.671875 59.757812 -15.125 61.78125 -15.125 C 63.289062 -15.125 65.015625 -15.628906 66.953125 -16.640625 C 68.890625 -17.648438 70.820312 -19.078125 72.75 -20.921875 C 74.6875 -22.773438 76.535156 -25.046875 78.296875 -27.734375 C 80.066406 -30.429688 81.453125 -33.457031 82.453125 -36.8125 L 123.8125 -36.8125 L 117.265625 -9.828125 C 113.898438 -7.648438 110.03125 -5.800781 105.65625 -4.28125 C 101.289062 -2.769531 96.671875 -1.550781 91.796875 -0.625 C 86.921875 0.289062 81.957031 0.957031 76.90625 1.375 C 71.863281 1.800781 67.070312 2.015625 62.53125 2.015625 C 54.132812 2.015625 46.320312 1.257812 39.09375 -0.25 C 31.863281 -1.757812 25.554688 -4.363281 20.171875 -8.0625 C 14.796875 -11.769531 10.550781 -16.691406 7.4375 -22.828125 C 4.332031 -28.960938 2.78125 -36.566406 2.78125 -45.640625 C 2.78125 -53.878906 4.082031 -61.945312 6.6875 -69.84375 C 9.289062 -77.75 13.660156 -84.769531 19.796875 -90.90625 C 25.929688 -97.039062 34.164062 -101.957031 44.5 -105.65625 C 54.84375 -109.351562 67.75 -111.203125 83.21875 -111.203125 C 100.03125 -111.203125 112.679688 -108.597656 121.171875 -103.390625 C 129.660156 -98.179688 133.90625 -90.03125 133.90625 -78.9375 C 133.90625 -74.394531 133.234375 -69.472656 131.890625 -64.171875 C 130.546875 -58.878906 128.523438 -54.382812 125.828125 -50.6875 Z M 88.515625 -80.6875 C 88.515625 -85.90625 87.671875 -89.4375 85.984375 -91.28125 C 84.304688 -93.132812 82.289062 -94.0625 79.9375 -94.0625 C 77.25 -94.0625 74.769531 -93.175781 72.5 -91.40625 C 70.226562 -89.644531 68.164062 -87.289062 66.3125 -84.34375 C 64.46875 -81.40625 62.789062 -78.046875 61.28125 -74.265625 C 59.769531 -70.484375 58.507812 -66.488281 57.5 -62.28125 L 86.25 -62.28125 C 86.582031 -64.300781 86.914062 -66.40625 87.25 -68.59375 C 87.582031 -70.4375 87.875 -72.453125 88.125 -74.640625 C 88.382812 -76.828125 88.515625 -78.84375 88.515625 -80.6875 Z M 88.515625 -80.6875 "/></g></g></g></svg>